<?xml version="1.0" standalone="no"?>
<!DOCTYPE svg PUBLIC "-//W3C//DTD SVG 20010904//EN"
 "http://www.w3.org/TR/2001/REC-SVG-20010904/DTD/svg10.dtd">
<svg version="1.0" xmlns="http://www.w3.org/2000/svg"
 width="800.000000pt" height="800.000000pt" viewBox="0 0 800.000000 800.000000"
 preserveAspectRatio="xMidYMid meet">

<g transform="translate(0.000000,800.000000) scale(0.100000,-0.100000)"
fill="#000000" stroke="none">
<path d="M4093 7452 c-145 -52 -225 -165 -225 -317 0 -136 71 -248 192 -303
73 -34 186 -41 263 -17 194 61 287 284 196 471 -26 54 -107 130 -166 156 -67
30 -192 34 -260 10z m215 -168 c37 -27 72 -100 72 -149 0 -54 -37 -124 -80
-153 -30 -20 -45 -23 -97 -20 -76 5 -109 26 -142 91 -20 40 -22 56 -16 102 13
105 75 159 178 152 37 -2 67 -10 85 -23z"/>
<path d="M3470 7434 c-104 -28 -177 -91 -223 -192 -30 -66 -29 -185 2 -263 29
-75 89 -142 157 -175 104 -51 268 -33 387 41 31 20 57 42 57 48 0 7 -21 38
-46 70 -41 53 -47 57 -62 44 -35 -31 -108 -59 -161 -64 -95 -8 -162 48 -177
144 -14 97 39 171 140 194 47 10 62 9 106 -5 29 -9 53 -16 55 -14 8 10 56 141
52 144 -2 3 -29 13 -60 24 -66 23 -149 25 -227 4z"/>
<path d="M4737 7308 c-119 -391 -157 -521 -152 -526 8 -8 117 -42 135 -42 11
0 29 45 64 163 27 89 52 165 56 169 5 7 92 -275 116 -376 7 -30 27 -42 121
-69 l53 -16 31 102 c17 56 58 190 91 297 32 107 61 200 63 207 5 14 -128 58
-149 50 -6 -3 -22 -42 -36 -88 -13 -46 -36 -122 -50 -169 l-27 -85 -31 100
c-16 55 -45 150 -63 212 l-33 111 -70 21 c-39 12 -76 21 -82 21 -7 0 -23 -37
-37 -82z"/>
<path d="M2660 7181 c-31 -7 -126 -45 -273 -111 -27 -12 -46 -27 -44 -33 21
-54 250 -564 256 -570 9 -9 151 52 151 66 0 5 -18 50 -40 99 -22 50 -40 94
-40 99 0 4 9 11 20 14 15 5 47 -13 125 -70 l104 -76 73 32 c40 17 81 36 92 41
15 8 -1 22 -108 94 -69 46 -126 87 -126 90 0 3 11 22 25 42 37 54 36 142 -4
203 -42 67 -125 98 -211 80z m64 -173 c21 -30 20 -71 -2 -91 -25 -23 -106 -57
-114 -49 -3 4 -18 33 -32 64 l-25 58 42 19 c59 27 112 27 131 -1z"/>
<path d="M5421 7095 c-18 -36 -32 -67 -30 -69 2 -2 34 -21 72 -41 37 -20 67
-38 67 -39 0 -2 -52 -97 -115 -211 -63 -115 -115 -212 -115 -216 0 -8 128 -79
141 -79 4 0 57 91 119 203 62 111 115 206 119 210 5 4 39 -10 77 -32 63 -36
70 -38 82 -23 24 30 63 113 57 122 -3 4 -47 31 -98 58 -50 28 -146 80 -212
116 -66 36 -122 66 -125 66 -3 0 -20 -29 -39 -65z"/>
<path d="M1983 6817 c-100 -73 -182 -135 -183 -138 0 -6 352 -494 370 -513 6
-6 319 208 379 260 7 6 -17 46 -52 87 l-32 38 -117 -85 c-65 -48 -119 -86
-121 -86 -2 0 -18 20 -35 44 l-32 45 87 63 c48 35 91 66 96 69 14 10 1 39 -36
82 l-32 38 -95 -70 -95 -70 -27 31 c-16 18 -28 37 -28 43 0 6 52 49 115 95 72
53 112 87 107 95 -20 33 -76 105 -81 105 -3 -1 -88 -60 -188 -133z"/>
<path d="M5833 6585 c-109 -135 -199 -249 -200 -253 -2 -8 112 -102 125 -102
5 0 39 38 76 85 59 74 70 84 87 75 23 -13 23 -1 -1 -140 -11 -63 -20 -122 -20
-130 1 -8 30 -37 66 -65 36 -27 90 -80 120 -117 l55 -68 52 20 c29 11 57 20
63 20 6 0 33 -28 61 -63 83 -104 81 -97 44 -156 l-33 -51 43 -56 c24 -31 51
-65 61 -77 16 -21 16 -21 43 24 204 341 318 535 321 544 4 9 -69 108 -115 157
-5 6 -504 -158 -605 -198 -16 -6 -18 -3 -13 22 3 16 11 75 18 131 l12 101 62
0 c73 -2 112 17 158 75 25 30 32 49 35 96 7 94 -24 140 -180 267 -70 57 -129
104 -132 104 -3 0 -94 -110 -203 -245z m302 -16 c51 -47 59 -85 25 -119 -34
-34 -67 -26 -142 36 l-27 22 41 51 c23 28 45 51 50 51 5 0 29 -19 53 -41z
m402 -614 l-52 -85 -23 27 c-13 16 -32 40 -43 55 l-19 26 82 31 c46 16 89 30
95 30 7 1 -11 -37 -40 -84z"/>
<path d="M1501 6399 l-174 -181 57 -56 57 -57 57 62 57 63 179 -172 179 -172
58 64 57 64 -174 171 -174 170 55 58 c31 32 53 63 49 68 -7 13 -93 93 -103 96
-3 2 -84 -79 -180 -178z"/>
<path d="M1203 6052 c-12 -20 -31 -51 -43 -68 l-20 -31 152 -99 153 -99 -220
-3 -220 -3 -37 -58 c-21 -32 -40 -65 -44 -74 -4 -11 28 -36 113 -92 350 -228
409 -265 418 -265 14 0 87 120 82 134 -3 6 -68 52 -145 101 -78 50 -141 93
-141 98 -1 4 97 7 217 7 l217 0 37 58 c55 86 56 82 -15 127 -34 22 -153 99
-265 172 -111 73 -206 133 -210 133 -4 0 -17 -17 -29 -38z"/>
<path d="M6772 5680 c-115 -41 -178 -94 -222 -185 -32 -65 -32 -176 -1 -255
36 -92 153 -229 198 -230 12 0 93 111 93 127 0 4 -16 19 -35 32 -19 12 -49 46
-67 74 -27 42 -32 61 -33 108 0 72 21 104 96 142 88 46 150 28 214 -62 23 -33
30 -55 33 -105 l4 -64 75 -7 c41 -4 77 -4 80 -1 18 17 14 118 -6 177 -44 132
-122 216 -232 250 -76 24 -129 24 -197 -1z"/>
<path d="M3597 5425 c-62 -17 -195 -93 -215 -123 -12 -18 -14 -43 -9 -117 6
-102 6 -102 -68 -152 -30 -20 -31 -21 -100 -2 -95 24 -127 24 -153 -4 -29 -30
-54 -94 -47 -117 4 -13 -5 -32 -30 -59 -44 -49 -55 -103 -31 -152 15 -31 15
-36 -14 -126 -17 -51 -30 -100 -30 -109 0 -8 -30 -90 -66 -182 -144 -364 -174
-446 -167 -453 4 -4 23 -5 42 -2 38 6 48 24 116 211 20 56 39 102 42 102 6 0
-6 -307 -13 -332 -4 -15 -15 -16 -87 -11 -81 6 -83 5 -114 -24 -17 -16 -36
-47 -43 -69 -6 -21 -16 -133 -21 -247 -9 -202 -9 -210 11 -242 24 -38 91 -75
138 -75 17 0 33 -3 35 -7 2 -5 -1 -41 -6 -80 -12 -81 -5 -100 23 -63 18 24 18
24 40 5 21 -19 60 -88 81 -143 9 -24 4 -21 -36 18 -37 35 -46 40 -40 23 3 -13
3 -23 -1 -23 -4 0 -45 35 -92 78 -95 85 -97 81 -10 -21 32 -37 70 -86 84 -107
28 -42 42 -54 24 -21 -19 36 -10 35 30 -4 22 -21 43 -36 46 -32 4 4 13 2 19
-3 9 -8 11 -3 8 17 -4 27 -3 27 33 -12 l37 -40 -6 38 c-7 46 3 47 28 5 16 -26
20 -29 23 -15 9 44 -76 256 -127 317 -13 16 -6 -5 19 -55 43 -87 56 -125 43
-125 -4 0 -23 23 -41 50 -28 44 -69 81 -128 116 -17 10 -17 14 0 115 10 57 23
114 30 126 12 23 135 167 394 460 95 108 158 171 165 166 7 -3 29 -17 50 -30
20 -13 63 -30 94 -38 51 -13 63 -13 109 0 28 8 57 22 64 30 24 29 30 14 30
-82 0 -114 -16 -242 -59 -478 -38 -206 -54 -263 -83 -301 -20 -25 -49 -91 -65
-149 -6 -20 -6 -20 16 0 l22 19 -10 -28 c-14 -34 -14 -46 0 -24 5 10 16 15 24
12 8 -4 15 -1 15 5 0 6 7 11 15 11 13 0 14 -4 5 -21 -6 -11 -10 -25 -8 -31 2
-5 22 17 45 49 23 33 49 66 58 73 8 7 13 20 10 30 -3 11 9 34 35 62 35 40 40
52 40 95 0 84 16 119 88 192 86 87 117 103 216 109 l78 5 -7 -24 c-4 -13 -10
-31 -13 -39 -3 -8 14 9 37 38 23 29 63 68 89 87 42 31 54 35 111 35 43 0 70
-5 81 -15 14 -13 22 -8 78 48 37 38 78 93 102 137 l39 75 31 -70 c43 -94 63
-115 113 -115 24 0 48 7 60 18 20 17 20 16 14 -34 -10 -88 -37 -163 -82 -227
-24 -34 -65 -93 -91 -132 -83 -122 -213 -259 -191 -201 8 21 7 21 -66 -14 -35
-16 -72 -30 -82 -30 -16 0 -16 3 6 26 13 14 50 42 82 61 31 20 57 38 57 40 0
3 -43 -18 -95 -45 -83 -44 -95 -48 -95 -31 0 30 -15 22 -28 -15 -7 -19 -29
-49 -50 -67 l-36 -32 -19 59 c-12 41 -17 83 -15 136 3 67 1 75 -12 65 -36 -28
-39 -63 -14 -162 l16 -65 -73 -78 c-41 -43 -85 -99 -97 -123 l-24 -44 38 45
c21 25 66 74 99 109 81 85 85 56 5 -44 -90 -113 -106 -152 -28 -70 34 37 69
76 76 86 7 11 17 19 23 19 14 0 11 -24 -12 -77 l-20 -48 27 25 26 25 -7 -24
c-8 -25 -1 -26 49 -6 16 7 17 6 6 -14 -19 -37 -6 -33 35 9 45 46 65 53 39 13
-11 -18 -12 -24 -3 -17 8 6 39 30 69 53 74 55 103 56 59 1 -69 -87 -69 -94 1
-40 19 15 49 35 65 46 30 18 29 18 -8 -29 -21 -26 -36 -47 -33 -47 2 0 48 34
101 75 53 42 114 87 136 102 21 14 39 27 39 29 0 7 -90 -30 -172 -71 -48 -24
-88 -42 -88 -38 0 3 9 21 21 39 16 27 17 33 5 28 -45 -17 7 62 107 164 51 50
88 92 84 92 -11 0 19 54 90 161 70 104 89 161 119 338 8 52 19 102 24 112 6
10 14 50 20 91 15 110 22 122 85 142 44 14 60 25 83 59 29 42 62 101 62 112 0
14 -138 3 -177 -15 -26 -11 -43 -15 -43 -8 0 12 81 89 200 190 79 68 230 232
230 251 0 6 -13 -2 -30 -18 -16 -16 -32 -26 -35 -23 -3 3 -1 25 4 49 14 58 14
190 1 225 -15 38 -2 44 103 44 l87 0 0 46 0 47 -126 -7 c-91 -5 -130 -4 -140
5 -11 9 -14 8 -14 -6 0 -17 -25 -18 -445 -14 -361 3 -445 7 -445 17 0 9 -11
12 -32 10 -24 -2 -33 1 -33 12 0 11 14 16 51 18 l52 3 7 44 c3 25 4 49 1 53
-3 5 -35 5 -72 0 -49 -7 -74 -6 -90 2 -22 12 -70 10 -149 -7 -37 -8 -40 -11
-43 -44 -3 -33 0 -37 30 -45 23 -7 33 -16 33 -29 0 -18 -8 -20 -82 -23 l-83
-3 0 -34 c0 -22 6 -37 18 -44 15 -9 16 -10 1 -16 -25 -9 -104 -2 -102 10 2 6
16 14 33 18 16 4 30 10 30 12 0 2 -11 30 -25 61 -14 31 -25 63 -25 71 0 7 20
22 45 33 65 28 101 58 151 123 46 62 56 100 27 112 -10 3 -67 3 -128 -1 l-111
-6 -38 48 c-22 27 -57 68 -80 92 -39 41 -42 42 -101 41 -33 0 -82 -7 -108 -14z
m199 -52 c24 -26 57 -66 74 -89 l30 -42 -36 -27 c-104 -80 -297 -155 -396
-155 -46 0 -47 1 -57 38 -5 20 -13 69 -17 108 l-6 71 38 32 c72 59 201 109
288 110 34 1 45 -5 82 -46z m348 -129 c14 -5 14 -9 0 -36 -22 -42 -92 -116
-127 -134 -15 -8 -94 -30 -175 -49 -81 -19 -185 -46 -232 -60 -129 -40 -340
-47 -340 -11 0 14 39 52 89 86 26 18 36 21 39 11 3 -8 13 -22 24 -33 16 -16
28 -18 56 -13 120 22 345 123 420 189 44 40 48 41 136 47 50 3 92 6 93 7 1 1
8 -1 17 -4z m42 -230 c-5 -13 -10 -14 -18 -6 -6 6 -8 18 -4 28 5 13 10 14 18
6 6 -6 8 -18 4 -28z m134 17 c0 -13 -10 -20 -31 -25 -38 -7 -79 2 -79 18 0 21
12 26 62 26 40 0 48 -3 48 -19z m58 -3 c-4 -27 -28 -36 -28 -10 0 20 8 32 22
32 5 0 8 -10 6 -22z m-1160 -29 c32 -11 40 -23 22 -34 -5 -3 -10 -15 -10 -25
0 -15 24 -32 93 -66 50 -26 117 -64 147 -84 65 -45 170 -138 170 -151 0 -16
-64 -10 -128 12 -51 17 -75 34 -139 98 -78 77 -249 208 -259 198 -3 -3 48 -48
113 -100 108 -86 164 -137 151 -137 -3 0 -38 14 -78 30 -40 17 -96 33 -124 36
-44 5 -61 1 -122 -29 -79 -39 -94 -36 -94 18 0 22 12 45 44 81 34 39 42 54 35
67 -9 16 7 61 34 96 12 14 83 9 145 -10z m716 -48 c16 -32 25 -64 21 -71 -4
-6 -22 -10 -41 -8 -30 2 -36 -2 -65 -46 -37 -54 -62 -68 -110 -57 -44 10 -69
24 -93 50 -11 12 -28 21 -38 21 -22 0 -68 46 -68 68 0 10 8 6 25 -12 28 -30
51 -36 36 -8 -6 10 -6 24 -1 32 7 12 12 11 30 -5 21 -19 21 -19 58 22 31 33
48 43 96 53 31 6 60 10 62 7 3 -2 -10 -14 -28 -26 -31 -21 -31 -22 -8 -19 14
1 31 -1 37 -5 9 -5 18 4 30 27 9 20 20 36 23 36 3 0 19 -26 34 -59z m466 -46
c0 -8 -2 -15 -4 -15 -2 0 -6 7 -10 15 -3 8 -1 15 4 15 6 0 10 -7 10 -15z
m-275 -25 c0 -11 -12 -15 -50 -15 -40 0 -50 4 -53 18 -3 16 3 18 50 15 39 -2
53 -7 53 -18z m199 5 c-4 -9 3 -16 19 -20 33 -9 67 2 67 21 0 8 5 14 10 14 14
0 12 -54 -2 -68 -16 -16 -224 -17 -234 -1 -4 7 4 20 17 30 l24 19 -32 0 c-17
0 -35 5 -38 10 -4 6 26 10 84 10 75 0 89 -2 85 -15z m376 -5 c0 -20 -5 -20
-122 -18 -82 2 -123 7 -125 15 -5 15 28 20 150 22 91 1 97 0 97 -19z m-1216
-41 c28 -22 52 -59 39 -59 -17 0 -98 79 -82 80 9 0 28 -9 43 -21z m1870 -16
c6 -31 9 -81 7 -130 -1 -45 -21 -42 -77 9 l-45 41 36 -74 c41 -85 43 -126 13
-189 l-22 -45 -6 45 -6 45 -13 -60 c-11 -48 -22 -68 -56 -102 -53 -54 -76 -55
-95 -5 l-14 37 -8 -59 c-21 -158 -177 -245 -300 -167 -70 44 -100 91 -107 164
l-7 62 -13 -37 c-16 -49 -46 -50 -94 -5 -36 33 -56 86 -58 147 0 29 -2 31 -9
15 -5 -11 -9 -35 -9 -53 -1 -19 -5 -31 -11 -27 -14 9 -13 111 2 151 10 29 9
36 -7 54 -21 23 -21 23 28 43 31 14 37 21 37 46 0 30 2 31 42 31 50 0 149 46
156 72 4 17 27 18 317 18 l313 0 6 -27z m-1445 -17 c10 -12 8 -17 -9 -26 -12
-6 -28 -10 -36 -8 -13 3 -12 6 1 26 19 26 28 27 44 8z m86 -16 c3 -5 -2 -21
-11 -35 -25 -39 -7 -51 53 -35 26 7 96 15 155 17 95 5 108 4 114 -11 10 -26
-6 -35 -77 -47 -35 -6 -65 -12 -68 -14 -2 -2 10 -20 28 -40 36 -41 39 -55 11
-55 -17 0 -18 -3 -8 -26 10 -22 10 -28 -5 -38 -14 -11 -15 -15 -2 -33 8 -11
11 -23 8 -27 -3 -3 -47 -6 -96 -6 l-90 0 -53 50 c-30 28 -62 50 -74 50 -17 0
-21 4 -16 17 8 21 30 94 45 149 16 61 69 112 86 84z m345 -20 c0 -5 -5 -10
-11 -10 -5 0 -7 5 -4 10 3 6 8 10 11 10 2 0 4 -4 4 -10z m-1070 -65 c81 -51
172 -149 193 -208 6 -17 2 -18 -57 -12 -84 9 -125 -9 -45 -20 30 -4 83 -16
117 -27 l64 -19 -40 -34 c-37 -33 -87 -124 -80 -147 2 -6 15 7 30 29 14 22 40
54 58 71 49 49 93 39 54 -13 -15 -21 -47 -116 -40 -122 2 -2 18 21 36 51 37
65 53 72 45 19 l-6 -38 20 35 c22 40 19 44 53 -80 l23 -85 3 58 c2 36 -3 78
-13 108 -10 28 -14 53 -11 57 4 3 29 -19 58 -49 39 -41 49 -48 43 -29 -14 45
-35 79 -55 90 -60 32 27 42 92 10 23 -11 43 -18 46 -16 5 5 -78 66 -90 66 -18
0 -6 28 28 68 29 34 42 42 69 42 39 0 83 -33 116 -86 21 -35 21 -36 4 -112
-27 -124 -32 -133 -107 -227 -144 -179 -198 -217 -280 -195 -101 28 -220 106
-377 250 -129 118 -174 149 -113 78 18 -22 12 -22 -36 -3 l-37 15 40 -36 40
-35 -67 6 c-44 4 -68 3 -68 -3 0 -12 101 -52 130 -52 35 0 22 -16 -37 -48 -89
-48 -95 -54 -45 -47 49 8 54 -4 15 -35 l-28 -21 41 20 c23 11 62 36 88 55 49
38 83 46 92 21 8 -19 -345 -539 -357 -527 -13 14 35 828 55 942 27 147 91 249
175 274 53 15 89 7 161 -39z m1228 18 c3 -22 1 -23 -73 -23 -57 0 -76 3 -73
13 8 21 52 37 98 35 38 -3 45 -6 48 -25z m-613 -10 c-3 -10 -9 -31 -12 -46 -7
-35 -25 -43 -63 -27 -51 21 -56 36 -18 56 31 16 73 31 92 33 4 1 5 -7 1 -16z
m550 -79 c30 -30 12 -39 -78 -39 -47 0 -89 4 -93 7 -10 10 17 40 31 34 7 -2
18 0 26 5 24 15 96 10 114 -7z m927 -71 c-3 -16 -7 -22 -10 -15 -4 13 4 42 11
42 2 0 2 -12 -1 -27z m-944 5 c7 -7 12 -20 12 -30 0 -16 -10 -18 -84 -18 -93
0 -114 11 -76 42 26 21 129 25 148 6z m-638 -57 c0 -3 -11 -24 -25 -46 l-24
-40 -1 69 0 69 25 -23 c14 -13 25 -26 25 -29z m624 -17 c21 -8 20 -43 -1 -51
-19 -7 -122 12 -136 26 -19 19 6 31 63 31 32 0 65 -3 74 -6z m-59 -84 c0 -23
-69 -20 -73 3 -3 16 2 18 35 15 26 -2 38 -8 38 -18z m-242 3 c13 -12 -15 -33
-44 -33 -27 0 -39 17 -22 33 8 9 58 9 66 0z m180 -73 c46 0 62 -12 31 -24 -40
-15 -90 -6 -117 22 -38 40 -34 58 6 28 25 -19 46 -26 80 -26z m122 30 c3 -5
56 -47 118 -93 106 -79 187 -156 187 -176 0 -21 45 -16 65 6 18 21 24 22 58
12 28 -7 47 -7 70 1 28 9 33 8 48 -12 11 -13 28 -22 46 -23 27 0 28 -2 28 -50
0 -44 -4 -54 -37 -87 -42 -42 -53 -76 -19 -58 49 26 51 9 15 -109 -38 -123
-42 -133 -43 -95 -1 23 -9 37 -28 49 -18 12 -28 14 -31 7 -5 -15 -29 -16 -34
-2 -2 7 -13 6 -31 -2 -23 -11 -27 -18 -23 -40 3 -16 2 -28 -2 -28 -8 0 -72
189 -72 214 0 19 30 22 48 4 16 -16 15 -3 -2 31 -8 15 -26 36 -40 45 -22 14
-26 24 -26 69 0 67 -17 91 -74 106 -51 12 -146 15 -146 4 0 -5 17 -39 38 -78
37 -69 39 -70 102 -91 58 -19 65 -24 73 -55 19 -72 -15 -188 -84 -284 -50 -69
-71 -79 -162 -77 -83 2 -93 -1 -173 -55 -42 -28 -66 -36 -130 -44 -64 -8 -219
-49 -292 -77 -14 -5 -15 29 -9 293 4 175 11 303 16 308 7 7 25 4 53 -8 88 -36
152 -55 188 -55 86 0 148 43 199 140 25 47 31 69 31 121 0 106 49 231 75 189z
m720 -90 c-3 -5 -11 -10 -16 -10 -6 0 -7 5 -4 10 3 6 11 10 16 10 6 0 7 -4 4
-10z m-822 -77 c-6 -95 -37 -166 -93 -217 -37 -34 -45 -36 -105 -36 -75 0 -87
15 -19 23 78 8 132 64 160 166 23 85 45 141 54 141 5 0 6 -35 3 -77z m911 -69
c14 -6 14 -11 -5 -43 -43 -71 -100 -117 -137 -109 -12 3 -4 11 24 26 36 18 84
74 84 96 0 3 -14 6 -32 6 -21 0 -41 -9 -60 -27 -29 -28 -50 -25 -32 5 23 38
112 64 158 46z m-575 -15 c20 -7 33 -20 37 -35 9 -36 -3 -41 -26 -11 -17 22
-72 47 -103 47 -17 0 37 -83 64 -98 17 -9 38 -23 47 -30 15 -12 12 -13 -18 -8
-48 8 -76 32 -111 94 l-29 52 53 0 c30 0 68 -5 86 -11z m121 1 c0 -5 -2 -10
-4 -10 -3 0 -8 5 -11 10 -3 6 -1 10 4 10 6 0 11 -4 11 -10z m-1440 -125 c0 -8
-27 -46 -60 -84 -100 -116 -108 -105 -19 25 49 70 79 93 79 59z m-574 -292
c-3 -38 -15 -113 -26 -168 -11 -55 -23 -141 -26 -192 -6 -77 -4 -96 10 -118 9
-14 14 -30 11 -35 -8 -12 -59 7 -80 30 -22 25 -18 93 19 287 15 78 26 157 24
175 l-4 33 -17 -35 c-20 -43 -23 -14 -3 34 16 38 39 55 75 56 23 0 24 -1 17
-67z m2174 -4 c0 -6 -4 -7 -10 -4 -5 3 -10 11 -10 16 0 6 5 7 10 4 6 -3 10
-11 10 -16z m-100 1 c0 -5 -4 -10 -10 -10 -5 0 -10 5 -10 10 0 6 5 10 10 10 6
0 10 -4 10 -10z m80 -90 c-8 -5 -24 -10 -35 -10 -11 0 -27 5 -35 10 -11 7 -1
10 35 10 36 0 46 -3 35 -10z m-1100 -238 l0 -158 -32 -44 c-18 -23 -34 -38
-35 -33 -2 6 10 93 27 193 16 101 30 187 30 192 0 4 2 8 5 8 3 0 5 -71 5 -158z
m90 -57 c-35 -35 -65 -63 -67 -62 -1 2 1 23 5 47 7 41 11 46 52 62 75 29 77
21 10 -47z m-104 -200 c-6 -31 -61 -93 -73 -81 -5 4 29 75 55 115 19 28 27 14
18 -34z m647 -203 c15 -2 27 -10 27 -16 0 -6 -27 -38 -60 -71 -33 -33 -60 -57
-60 -54 0 10 21 124 26 142 4 13 11 16 22 11 10 -4 29 -9 45 -12z"/>
<path d="M3553 5331 c-21 -15 -52 -36 -69 -44 -16 -9 -22 -16 -13 -17 18 0 98
49 118 73 20 24 9 21 -36 -12z"/>
<path d="M3165 4660 c11 -5 47 -22 80 -37 l60 -27 -93 -6 c-50 -4 -94 -9 -97
-12 -3 -3 39 -10 92 -16 54 -6 120 -18 148 -26 27 -9 51 -13 54 -11 2 3 -2 17
-10 32 -27 50 -106 88 -229 108 -22 4 -23 3 -5 -5z"/>
<path d="M4776 3960 c4 -14 13 -41 20 -60 l14 -35 -6 35 c-4 19 -13 46 -21 60
l-14 25 7 -25z"/>
<path d="M4935 3944 c-9 -22 -18 -52 -21 -69 -3 -16 6 -1 20 35 27 69 28 97 1
34z"/>
<path d="M796 5337 c-14 -40 -26 -77 -26 -83 0 -14 -10 -9 195 -84 209 -76
211 -77 230 -117 16 -33 16 -38 0 -79 -20 -52 -47 -74 -91 -74 -18 0 -112 29
-210 65 -98 36 -185 66 -193 68 -9 1 -23 -24 -43 -77 -16 -43 -27 -80 -26 -82
11 -11 379 -137 419 -143 109 -17 206 23 260 107 62 98 76 211 35 297 -36 78
-89 117 -236 170 -41 15 -123 44 -181 65 l-107 39 -26 -72z"/>
<path d="M7213 5161 c-29 -9 -55 -19 -58 -23 -3 -3 3 -38 14 -78 11 -40 19
-76 16 -80 -2 -3 -106 -35 -229 -71 -177 -50 -226 -68 -226 -80 0 -33 41 -149
53 -149 7 0 113 29 235 64 145 41 225 59 227 52 2 -6 12 -38 21 -71 9 -33 20
-64 25 -69 8 -9 125 19 142 35 5 4 -10 72 -33 150 -23 79 -48 167 -56 194 -43
158 -41 156 -131 126z"/>
<path d="M576 4614 c-3 -26 -6 -64 -6 -85 0 -43 -12 -37 140 -59 41 -6 76 -13
78 -15 3 -3 -18 -216 -22 -222 -1 -1 -44 4 -96 12 -147 23 -135 28 -146 -70
l-9 -84 25 -6 c14 -2 84 -12 155 -20 72 -9 203 -25 293 -36 90 -12 165 -19
167 -17 7 7 27 160 21 165 -2 3 -58 12 -123 20 -65 8 -120 17 -121 18 -9 8 22
225 32 225 6 0 62 -7 125 -15 63 -9 116 -14 118 -12 7 7 23 159 17 168 -3 5
-17 9 -32 9 -15 0 -76 7 -137 15 -178 24 -430 55 -452 55 -17 0 -21 -9 -27
-46z"/>
<path d="M7244 4541 c-80 -20 -134 -95 -155 -217 -6 -38 -18 -84 -25 -102 -11
-28 -18 -33 -41 -30 -40 4 -55 40 -50 118 4 54 17 98 45 152 2 4 -26 22 -62
40 -65 32 -66 32 -81 13 -55 -73 -69 -266 -26 -363 43 -96 135 -150 228 -132
84 15 130 78 158 212 25 119 33 138 60 138 64 0 73 -108 21 -230 -5 -11 9 -24
50 -48 31 -17 62 -32 69 -32 24 0 58 100 63 187 5 91 -10 151 -53 213 -44 63
-131 98 -201 81z"/>
<path d="M671 3743 c-96 -50 -106 -182 -20 -246 38 -28 106 -32 148 -10 96 50
106 182 20 246 -38 28 -106 32 -148 10z"/>
<path d="M7201 3743 c-96 -50 -106 -182 -20 -246 38 -28 106 -32 148 -10 96
50 106 182 20 246 -38 28 -106 32 -148 10z"/>
<path d="M3133 3428 c-4 -7 -11 -44 -14 -83 -4 -38 -10 -95 -14 -125 -6 -42
-4 -58 6 -66 25 -19 111 -44 155 -44 46 0 48 2 78 112 9 31 21 60 27 63 16 10
30 55 24 75 -4 13 -38 26 -124 49 -136 36 -127 35 -138 19z m123 -39 c84 -22
120 -41 108 -60 -3 -6 -13 -8 -21 -5 -9 4 -21 2 -27 -3 -23 -19 -127 5 -134
31 -3 13 -10 17 -23 13 -20 -7 -23 2 -13 29 8 20 8 20 110 -5z m1 -105 c60
-17 61 -22 31 -96 -12 -33 -47 -37 -103 -14 -38 16 -41 28 -23 87 13 44 18 45
95 23z m-110 -16 c-3 -8 -6 -5 -6 6 -1 11 2 17 5 13 3 -3 4 -12 1 -19z m20
-117 c-11 -4 -47 29 -47 45 0 7 12 1 28 -14 15 -15 23 -29 19 -31z m128 -10
c-3 -6 -14 -10 -23 -10 -15 1 -15 2 1 6 9 2 17 9 17 15 0 6 3 9 6 5 3 -3 3
-10 -1 -16z"/>
<path d="M4017 3210 c-30 -38 -79 -107 -108 -153 -41 -65 -63 -90 -96 -107
-44 -23 -123 -101 -123 -121 0 -6 32 18 72 52 64 57 78 63 43 19 -6 -8 -24
-37 -39 -65 l-28 -50 51 55 52 55 -30 -50 c-34 -56 -32 -69 4 -35 31 29 34 7
4 -30 -11 -14 -29 -38 -41 -55 l-21 -30 31 29 c19 18 32 24 32 16 0 -10 5 -9
19 4 13 12 20 13 23 6 2 -7 36 32 76 85 40 53 67 93 60 89 -7 -4 -30 -18 -51
-32 -22 -13 -41 -21 -45 -18 -3 3 16 33 42 66 36 47 41 57 21 44 -14 -9 -28
-14 -31 -12 -10 11 75 197 127 276 35 53 15 36 -44 -38z"/>
<path d="M2480 3103 c59 -63 137 -174 190 -270 29 -53 35 -50 15 8 l-15 44 25
-27 c30 -35 41 -36 19 -3 -31 48 6 25 48 -29 23 -30 44 -53 46 -51 8 8 -41 85
-88 138 -56 61 -278 257 -293 257 -5 0 19 -30 53 -67z"/>
<path d="M6824 3145 c-5 -21 13 -51 115 -187 67 -88 123 -165 124 -171 2 -11
0 -12 -233 -52 -181 -32 -195 -37 -203 -64 -3 -12 -4 -21 -3 -21 1 0 47 -18
101 -41 241 -99 418 -169 420 -167 2 2 5 12 9 24 7 23 9 22 -296 144 -60 24
-108 47 -108 50 0 4 19 10 43 14 108 16 316 54 326 60 18 11 13 45 -11 79 -12
18 -60 83 -106 145 -47 62 -83 115 -81 117 3 2 93 -32 202 -76 108 -43 201
-79 205 -79 5 0 14 10 19 23 10 21 8 25 -16 34 -14 6 -128 51 -253 102 -124
50 -231 91 -237 91 -6 0 -13 -11 -17 -25z"/>
<path d="M1040 3138 c-54 -37 -62 -64 -64 -215 -1 -135 -1 -135 -29 -159 -89
-76 -194 32 -191 198 1 49 -1 57 -20 62 -30 8 -37 -11 -33 -89 9 -158 111
-275 214 -246 98 28 113 59 113 229 l0 134 29 29 c79 79 180 -12 181 -162 0
-60 2 -67 22 -72 12 -4 24 -4 26 -2 3 2 5 35 5 73 0 131 -71 230 -171 239 -38
4 -54 0 -82 -19z"/>
<path d="M2880 3126 c0 -2 8 -10 18 -17 15 -13 16 -12 3 4 -13 16 -21 21 -21
13z"/>
<path d="M5037 3063 c-24 -32 -65 -93 -92 -136 -33 -53 -60 -83 -80 -92 -19
-9 -24 -14 -12 -14 23 -1 21 -14 -8 -86 -38 -92 -29 -90 18 5 32 65 48 87 67
91 24 7 24 7 3 8 -13 1 -23 3 -23 6 0 9 121 198 152 238 16 20 27 37 24 37 -2
0 -24 -26 -49 -57z"/>
<path d="M3491 3074 c0 -11 3 -14 6 -6 3 7 2 16 -1 19 -3 4 -6 -2 -5 -13z"/>
<path d="M5300 3026 c-25 -18 -81 -63 -125 -100 -86 -73 -123 -98 -109 -74 10
17 -11 1 -98 -75 -67 -58 -84 -64 -52 -19 9 13 13 26 10 29 -6 7 -76 -138 -76
-158 0 -7 21 7 48 32 26 25 56 52 67 60 17 13 17 11 -3 -18 -26 -37 -29 -51
-6 -32 15 12 16 11 10 -9 -10 -29 8 -29 37 1 12 12 69 78 126 147 57 69 131
153 165 188 33 34 58 62 56 62 -3 0 -25 -15 -50 -34z"/>
<path d="M3478 3017 c-4 -21 -30 -87 -57 -147 -50 -107 -65 -154 -36 -117 13
18 14 16 17 -15 3 -32 4 -31 25 27 38 102 64 213 61 252 l-3 38 -7 -38z"/>
<path d="M5485 2994 c-174 -91 -305 -193 -408 -319 -49 -60 -23 -40 83 61 101
97 205 175 306 230 46 25 84 48 84 50 0 9 -17 3 -65 -22z"/>
<path d="M3034 2981 c25 -47 77 -182 91 -236 10 -38 14 -43 14 -22 1 38 -44
169 -81 235 -31 55 -49 73 -24 23z"/>
<path d="M3542 2932 c-28 -46 -58 -120 -50 -127 1 -2 22 37 45 86 23 49 40 89
38 89 -2 0 -16 -21 -33 -48z"/>
<path d="M3243 2890 c4 -14 7 -58 7 -98 0 -55 3 -72 13 -69 6 2 22 -5 35 -17
23 -20 24 -21 37 -2 17 23 28 87 23 141 l-3 40 -24 -63 c-13 -34 -26 -60 -28
-58 -3 3 -16 35 -29 72 -23 66 -42 101 -31 54z"/>
<path d="M4740 2785 c-36 -20 -76 -47 -90 -62 l-25 -26 30 21 c17 11 64 39
105 61 41 22 68 41 60 41 -8 0 -44 -16 -80 -35z"/>
<path d="M1200 2689 c-96 -12 -182 -74 -227 -163 -20 -39 -25 -65 -26 -120 0
-86 23 -145 82 -209 175 -189 501 -59 501 200 0 184 -149 316 -330 292z m103
-58 c158 -37 231 -248 128 -371 -16 -20 -53 -49 -82 -65 -44 -24 -66 -29 -119
-29 -72 0 -110 16 -157 63 -109 108 -91 285 37 366 65 41 123 52 193 36z"/>
<path d="M6514 2483 c-31 -49 -72 -112 -92 -141 -19 -29 -33 -54 -31 -56 2 -2
65 -43 139 -91 74 -48 173 -113 220 -144 46 -31 90 -59 96 -63 8 -5 43 40 103
131 50 77 91 144 91 150 0 9 -39 27 -44 19 -80 -125 -132 -206 -141 -216 -10
-11 -29 -3 -99 42 -47 31 -86 61 -86 67 0 5 24 47 53 92 29 45 57 88 61 95 7
12 -9 42 -23 42 -3 0 -36 -45 -71 -100 -36 -55 -69 -100 -74 -100 -6 0 -132
78 -154 95 -2 2 31 54 72 117 42 63 76 118 76 121 0 4 -9 11 -20 17 -17 9 -25
1 -76 -77z"/>
<path d="M1635 2187 c-28 -24 -122 -103 -210 -177 -88 -73 -161 -136 -163
-139 -3 -9 189 -236 201 -236 5 0 14 7 20 16 8 13 -5 34 -66 106 -42 50 -77
95 -77 100 0 8 247 222 364 315 l21 17 -20 21 -20 20 -50 -43z"/>
<path d="M6240 2107 c-154 -178 -146 -166 -126 -185 15 -15 20 -12 74 46 l57
62 188 -164 c181 -159 207 -176 221 -140 6 16 -4 25 -222 214 -134 116 -151
134 -140 148 7 10 29 36 50 59 43 48 46 58 20 72 -15 8 -34 -10 -122 -112z"/>
<path d="M6006 1854 c-80 -29 -151 -106 -170 -187 -10 -40 25 -111 66 -137 45
-29 102 -22 207 23 110 48 159 49 195 6 14 -17 26 -40 26 -52 -1 -63 -94 -154
-181 -177 -33 -9 -39 -15 -39 -37 0 -23 3 -25 32 -19 91 18 209 114 228 187
26 96 -39 189 -132 189 -18 0 -71 -16 -118 -36 -158 -67 -198 -66 -226 2 -19
46 -7 88 39 131 34 33 107 73 132 73 9 0 15 9 15 25 0 29 -15 31 -74 9z"/>
<path d="M1975 1786 c-44 -23 -162 -84 -263 -136 -100 -52 -181 -99 -179 -104
2 -5 11 -14 20 -20 13 -8 32 -3 82 22 36 17 70 32 76 32 15 0 199 -163 199
-177 0 -7 -9 -35 -20 -63 -25 -64 -25 -82 0 -105 16 -14 21 -15 24 -4 3 8 46
137 96 287 88 263 91 274 74 293 -9 10 -20 19 -23 18 -3 0 -42 -20 -86 -43z
m51 -53 c-3 -10 -25 -76 -49 -146 l-43 -129 -88 77 -88 78 68 37 c38 21 94 51
124 68 65 35 84 39 76 15z"/>
<path d="M5713 1617 c-22 -10 -23 -14 -23 -164 0 -84 -2 -153 -4 -153 -2 0
-64 29 -137 64 -128 63 -133 64 -161 50 l-29 -15 133 -65 c73 -35 149 -72 168
-81 26 -13 51 -45 97 -118 34 -55 66 -101 71 -103 4 -1 16 3 25 10 16 12 12
22 -45 113 l-63 100 -5 186 -5 186 -22 -10z"/>
<path d="M2173 1372 c-128 -212 -141 -238 -126 -249 9 -7 20 -13 24 -13 4 0
58 85 120 190 63 104 117 190 120 190 5 0 26 -237 38 -449 5 -91 9 -105 27
-118 21 -13 26 -7 163 221 77 129 141 239 141 245 0 9 -39 27 -44 19 -13 -19
-193 -320 -203 -340 -20 -39 -33 -44 -33 -11 0 15 -5 71 -10 123 -5 52 -11
142 -15 200 -10 179 -15 209 -35 220 -10 6 -20 10 -22 10 -2 0 -67 -107 -145
-238z"/>
<path d="M5198 1336 c-62 -17 -120 -56 -148 -101 -18 -29 -21 -46 -17 -88 4
-43 10 -56 41 -84 l37 -34 150 3 151 3 24 -28 c16 -19 24 -40 24 -66 0 -32 -7
-45 -39 -74 -47 -43 -99 -61 -173 -61 -48 -1 -58 -4 -62 -20 -3 -11 -3 -23 0
-28 9 -15 94 -8 157 13 140 47 199 142 151 241 -32 67 -51 73 -220 70 l-152
-3 -21 27 c-67 85 44 202 181 192 35 -2 43 1 46 16 7 37 -43 45 -130 22z"/>
<path d="M2790 1123 c-80 -86 -171 -185 -204 -220 l-58 -63 28 -10 c27 -11 31
-8 81 48 l53 60 118 -45 c64 -25 122 -49 129 -55 7 -6 13 -42 15 -85 3 -70 5
-76 27 -85 l24 -8 -7 297 c-6 259 -9 300 -23 311 -9 6 -22 12 -27 12 -6 0 -76
-71 -156 -157z m152 -70 c3 -82 2 -151 -1 -155 -3 -4 -26 2 -51 12 -25 10 -71
28 -103 41 -31 13 -56 26 -55 30 5 12 193 219 199 219 4 0 9 -66 11 -147z"/>
<path d="M4585 1135 c-223 -90 -239 -398 -27 -523 42 -24 57 -27 137 -27 78 0
97 4 141 27 216 114 195 442 -34 528 -71 27 -143 25 -217 -5z m212 -46 c83
-40 136 -131 136 -234 0 -157 -155 -261 -317 -213 -86 26 -156 132 -156 237 0
50 29 123 63 160 61 66 191 90 274 50z"/>
<path d="M3435 1068 c-3 -35 -11 -89 -16 -121 -11 -63 -49 -345 -49 -363 0 -6
43 -16 103 -23 56 -7 126 -17 156 -22 71 -12 68 -12 74 10 6 25 6 25 -143 46
-69 10 -127 20 -129 21 -1 2 3 50 10 108 l13 106 45 -1 c25 0 80 -6 121 -13
75 -14 89 -11 90 20 0 6 -52 18 -120 28 -66 10 -122 21 -124 25 -2 3 0 31 5
61 5 30 12 70 15 88 4 28 9 32 37 32 18 0 70 -7 117 -15 119 -21 132 -20 128
8 -2 16 -11 23 -33 25 -16 1 -87 11 -156 22 -69 11 -128 20 -131 20 -3 0 -9
-28 -13 -62z"/>
<path d="M4032 1072 c-229 -82 -247 -436 -28 -538 75 -35 187 -34 267 2 59 27
67 36 50 63 -7 11 -16 10 -47 -10 -34 -21 -51 -24 -129 -24 -69 0 -98 4 -124
19 -101 55 -145 182 -105 303 18 53 51 93 104 126 47 30 191 32 234 4 15 -10
29 -17 30 -15 1 2 7 11 15 20 11 15 7 20 -31 39 -60 31 -166 36 -236 11z"/>
</g>
</svg>
